<?xml version="1.0" encoding="utf-8"?>
<!-- Generator: Adobe Illustrator 21.0.0, SVG Export Plug-In . SVG Version: 6.00 Build 0)  -->
<svg version="1.1" id="Layer_1" xmlns="http://www.w3.org/2000/svg" xmlns:xlink="http://www.w3.org/1999/xlink" x="0px" y="0px"
	 viewBox="0 0 227.4 225.6" style="enable-background:new 0 0 227.4 225.6;" xml:space="preserve">
<style type="text/css">
	.st0{fill:#E8E5D2;}
	.st1{fill:#5A5B5C;}
	.st2{clip-path:url(#SVGID_2_);}
	.st3{fill:none;}
	.st4{opacity:0.8;}
	.st5{fill:#FFFFFF;}
	.st6{fill:#37393F;}
	.st7{opacity:0.7;fill:#4D4D4D;enable-background:new    ;}
</style>
<g transform="translate(148.5 148.5)">
	<g transform="matrix(1, 0, 0, 1, -148.5, -148.5)">
		<path class="st0" d="M177.3,225.6H50.1C23,225.5,1,203.5,0.9,176.4V49.2C1,22.1,23,0.1,50.1,0h127.1c27.1,0.1,49.1,22.1,49.2,49.2
			v127.1C226.4,203.5,204.4,225.5,177.3,225.6z"/>
	</g>
	<g transform="translate(89.405 180.041)">
		<path class="st1" d="M-102.9-148.5l-22.6,22.1l-22.1-22.1H-102.9z"/>
	</g>
	<g>
		<defs>
			<rect id="SVGID_1_" x="-120" y="-124" width="168.1" height="168.1"/>
		</defs>
		<g transform="translate(27.612 24.541)" class="st2">
			<rect x="-147.6" y="-148.5" class="st3" width="168.1" height="168.1"/>
			<rect x="-147.6" y="-148.5" class="st3" width="168.1" height="168.1"/>
			<g transform="translate(10.719 15.974)" class="st4">
				<path class="st5" d="M-135.6-24.1c-2.5,0-4.2-0.8-5-3.4c-0.8-1.7-0.8-3.4,0-5.9l61.4-105.9c0.8-1.7,2.5-2.5,5-2.5
					c2.5,0,4.2,0.8,5,3.4L-7.8-33.3c0.8,2.2,0.8,4.6,0,6.7c-0.8,1.7-3.4,2.5-5,2.5H-135.6z"/>
				<path class="st6" d="M-74.2-135.9L-12.8-30h-122.7L-74.2-135.9 M-74.2-148.5c-4.6,0.2-8.7,2.7-10.9,6.7l-60.5,105.1
					c-2.5,3.8-2.5,8.8,0,12.6c2.2,4,6.4,6.5,10.9,6.7h121.9c4.6-0.2,8.7-2.7,10.9-6.7c2.5-3.8,2.5-8.8,0-12.6l-61.4-105.1
					C-65.5-145.8-69.6-148.3-74.2-148.5L-74.2-148.5z"/>
			</g>
		</g>
	</g>
	<circle class="st7" cx="-36" cy="-24.2" r="16.8"/>
</g>
</svg>
