<svg xmlns="http://www.w3.org/2000/svg" viewBox="0 0 61.235 61.235"><defs><style>.a{fill:#535351;}.b{fill:#fff;}</style></defs><circle class="a" cx="30.617" cy="30.617" r="30.617" transform="translate(0 0)"/><path class="b" d="M25.534,36.369h-14.7A10.846,10.846,0,0,1,0,25.534v-14.7A10.846,10.846,0,0,1,10.834,0h14.7A10.846,10.846,0,0,1,36.369,10.834v14.7A10.846,10.846,0,0,1,25.534,36.369Zm-14.7-32.71a7.184,7.184,0,0,0-7.176,7.176v14.7a7.184,7.184,0,0,0,7.176,7.175h14.7a7.183,7.183,0,0,0,7.175-7.175v-14.7a7.184,7.184,0,0,0-7.175-7.176Zm7.35,23.932a9.406,9.406,0,1,1,9.406-9.405A9.417,9.417,0,0,1,18.184,27.59Zm0-15.153a5.747,5.747,0,1,0,5.747,5.747A5.754,5.754,0,0,0,18.184,12.437ZM27.608,11.1a2.254,2.254,0,1,1,2.255-2.254A2.256,2.256,0,0,1,27.608,11.1Z" transform="translate(12.051 12.051)"/></svg>