<svg xmlns="http://www.w3.org/2000/svg" xmlns:xlink="http://www.w3.org/1999/xlink" viewBox="0 0 170.669 170.669"><defs><style>.a{fill:none;}.b{opacity:0.998;clip-path:url(#a);}.c{opacity:0.8;}.d{fill:#fff;}.e{fill:#37393f;}</style><clipPath id="a"><rect class="a" width="170.669" height="170.669" transform="translate(0)"/></clipPath></defs><g class="b"><g transform="translate(0)"><rect class="a" width="170.669" height="170.669"/></g><g class="c" transform="translate(10.24 9.387)"><path class="d" d="M17.7,120-7.9,40.641,59.514-8l67.414,48.641L101.328,120Z" transform="translate(15.58 15.68)"/><path class="e" d="M66.294,6.46l59.734,43.521-23.04,70.828H28.747L6.56,49.981,66.294,6.46m0-15.36-7.68,5.12L-1.12,39.741l-7.68,5.12,2.56,8.533L16.8,124.222l2.56,8.533h93.015l2.56-8.533,23.04-70.828,2.56-8.533-6.827-5.12L73.974-3.78,66.294-8.9Z" transform="translate(8.8 8.9)"/></g></g></svg>