<svg xmlns="http://www.w3.org/2000/svg" xmlns:xlink="http://www.w3.org/1999/xlink" viewBox="0 0 149.837 149.838"><defs><style>.a{fill:none;}.b{opacity:0.998;clip-path:url(#a);}.c{opacity:0.8;}.d{fill:#fff;}.e{fill:#37393f;}</style><clipPath id="a"><rect class="a" width="149.838" height="149.838" transform="translate(0)"/></clipPath></defs><g class="b"><rect class="a" width="149.838" height="149.838" transform="translate(0)"/><g transform="translate(0)"><rect class="a" width="149.838" height="149.838"/></g><g class="c" transform="translate(3.746 2.997)"><path class="d" d="M55.181,89.644,25.963,118.862-8.5,84.4,20.718,55.181-8.5,25.963,25.963-8.5,55.181,20.718,84.4-8.5l34.463,34.463L89.644,55.181,118.862,84.4,84.4,118.862Z" transform="translate(16.741 16.741)"/><path class="e" d="M91.54,6.882,117.762,33.1,88.544,62.322,117.762,91.54,91.54,117.762,62.322,88.544,33.1,117.762,6.882,91.54,36.1,62.322,6.882,33.1,33.1,6.882,62.322,36.1,91.54,6.882m0-15.733L83.3-1.359,62.322,19.618,41.345-1.359,33.1-9.6,24.863-1.359-1.359,24.863-9.6,33.1l8.241,8.241L19.618,62.322-1.359,83.3-9.6,91.54l8.241,8.241L24.863,126l8.241,8.241L41.345,126l20.977-20.977L83.3,126l8.241,8.241L99.781,126,126,99.781l8.241-8.241L126,83.3,105.026,62.322,126,41.345l8.241-8.241L126,24.863,99.032-1.359,91.54-8.851Z" transform="translate(9.6 9.6)"/></g></g></svg>