<svg xmlns="http://www.w3.org/2000/svg" xmlns:xlink="http://www.w3.org/1999/xlink" viewBox="0 0 168.148 168.148"><defs><style>.a{fill:none;}.b{clip-path:url(#a);}.c{opacity:0.8;}.d{fill:#fff;}.e{fill:#37393f;}</style><clipPath id="a"><rect class="a" width="168.148" height="168.148"/></clipPath></defs><g class="b"><rect class="a" width="168.148" height="168.148"/><rect class="a" width="168.148" height="168.148"/><g class="c" transform="translate(10.719 15.974)"><path class="d" d="M-10.674,102.738c-2.522,0-4.2-.841-5.044-3.363-.841-1.681-.841-3.363,0-5.885L45.656-12.443q1.261-2.522,5.044-2.522c2.522,0,4.2.841,5.044,3.363L117.118,93.49a9.283,9.283,0,0,1,0,6.726c-.841,1.681-3.363,2.522-5.044,2.522Z" transform="translate(22.654 21.691)"/><path class="e" d="M55.468-3.994l61.374,105.933H-5.906L55.468-3.994m0-12.611a13.12,13.12,0,0,0-10.93,6.726L-15.995,95.213a11.455,11.455,0,0,0,0,12.611,13.12,13.12,0,0,0,10.93,6.726H116.842a13.12,13.12,0,0,0,10.93-6.726,11.455,11.455,0,0,0,0-12.611L66.4-9.879a13.12,13.12,0,0,0-10.93-6.726Z" transform="translate(17.886 16.605)"/></g></g></svg>