<svg xmlns="http://www.w3.org/2000/svg" xmlns:xlink="http://www.w3.org/1999/xlink" viewBox="0 0 170.669 170.669"><defs><style>.a{fill:none;}.b{opacity:0.998;clip-path:url(#a);}.c{opacity:0.8;}.d{fill:#fff;}.e{fill:#37393f;}</style><clipPath id="a"><rect class="a" width="170.669" height="170.669" transform="translate(0)"/></clipPath></defs><g class="b"><g transform="translate(0)"><rect class="a" width="170.669" height="170.669"/></g><g class="c" transform="translate(11.093 18.774)"><path class="d" d="M25.48,108.2-7.8,50.174,25.48-7H92.041l33.28,57.174L92.041,108.2Z" transform="translate(15.48 13.827)"/><path class="e" d="M95.408,5l29.867,51.2L95.408,107.4H36.527L6.66,56.2,36.527,5H95.408m6.827-12.8H28.847L24.58-.973l-29.867,51.2L-8.7,57.054l3.413,6.827,29.867,51.2,3.413,6.827h74.241l3.413-6.827,29.867-51.2,3.413-6.827-3.413-6.827L106.5-.973,102.235-7.8Z" transform="translate(8.7 7.8)"/></g></g></svg>