<svg xmlns="http://www.w3.org/2000/svg" viewBox="0 0 337.962 69.958"><defs><style>.a,.e{fill:#6a696f;}.b,.f{fill:#5a5961;}.c{fill:#fff;}.d,.e,.f{stroke:none;}</style></defs><g transform="translate(-876.034 -277.852)"><g class="a" transform="translate(889.452 316.636)"><path class="d" d="M 23.00130462646484 29.71272277832031 L 22.50744438171387 29.71272277832031 L 16.75372314453125 29.71272277832031 C 15.48794078826904 29.71272277832031 14.54010486602783 29.21392059326172 13.93642425537109 28.23018836975098 L 1.49812388420105 11.11080360412598 C 1.141503930091858 10.60736274719238 0.759463906288147 10.24450302124023 0.3608638942241669 10.02988338470459 C -0.03515611961483955 9.816642761230469 -0.6761960983276367 9.708522796630859 -1.544456124305725 9.708522796630859 L -6.211875915527344 9.708522796630859 L -6.211875915527344 29.46272277832031 L -6.211875915527344 29.71272277832031 L -6.461875915527344 29.71272277832031 L -12.91807651519775 29.71272277832031 L -13.16807651519775 29.71272277832031 L -13.16807651519775 29.46272277832031 L -13.16807651519775 -18.47375679016113 L -13.16807651519775 -18.72375679016113 L -12.91807651519775 -18.72375679016113 L 0.6299238801002502 -18.72375679016113 C 3.671323776245117 -18.72375679016113 6.338723659515381 -18.41117668151855 8.558023452758789 -17.79471588134766 C 10.78856372833252 -17.17511749267578 12.65900421142578 -16.26479721069336 14.11738395690918 -15.08903694152832 C 15.58158397674561 -13.90861701965332 16.68114471435547 -12.46333694458008 17.38548469543457 -10.79337692260742 C 18.08664321899414 -9.130976676940918 18.4421443939209 -7.246856689453125 18.4421443939209 -5.193377017974854 C 18.4421443939209 -3.477196931838989 18.16696357727051 -1.850276827812195 17.62424468994141 -0.3577768206596375 C 17.0810432434082 1.136023163795471 16.28334426879883 2.496063232421875 15.25332355499268 3.684563159942627 C 14.22456359863281 4.871582984924316 12.95308399200439 5.897043228149414 11.47420406341553 6.732443332672119 C 10.15165519714355 7.47951078414917 8.653024673461914 8.070503234863281 7.012273788452148 8.492588996887207 C 7.658385276794434 8.951686859130859 8.234195709228516 9.552495002746582 8.729207992553711 10.28493022918701 L 22.70892333984375 29.31472396850586 L 23.00130462646484 29.71272277832031 Z M -6.211875915527344 4.491823196411133 L 0.3623038828372955 4.491823196411133 C 2.201123952865601 4.491823196411133 3.846983909606934 4.265043258666992 5.254183769226074 3.817783117294312 C 6.653523921966553 3.373063087463379 7.839603900909424 2.736723184585571 8.779463768005371 1.926483154296875 C 9.715703964233398 1.119383215904236 10.43034362792969 0.1430231779813766 10.90356349945068 -0.9754968285560608 C 11.3787841796875 -2.098736763000488 11.61974430084229 -3.360256910324097 11.61974430084229 -4.725056648254395 C 11.61974430084229 -6.111136913299561 11.39038372039795 -7.340916633605957 10.93802356719971 -8.380256652832031 C 10.48884391784668 -9.412277221679688 9.80544376373291 -10.28815650939941 8.906784057617188 -10.98353672027588 C 7.087063789367676 -12.39165687561035 4.302323818206787 -13.10563659667969 0.6299238801002502 -13.10563659667969 L -6.211875915527344 -13.10563659667969 L -6.211875915527344 4.491823196411133 Z M 54.89214324951172 29.42838287353516 C 51.35222244262695 29.42838287353516 48.07882308959961 28.81992340087891 45.16288375854492 27.61988258361816 C 42.2448844909668 26.41902351379395 39.70634460449219 24.70560264587402 37.61778259277344 22.52722358703613 C 35.53006362915039 20.34968376159668 33.89144515991211 17.7158031463623 32.7474250793457 14.69874286651611 C 31.60460472106934 11.68482303619385 31.02514457702637 8.329203605651855 31.02514457702637 4.725083351135254 C 31.02514457702637 1.120963215827942 31.60460472106934 -2.234656810760498 32.7474250793457 -5.248576641082764 C 33.89136505126953 -8.265437126159668 35.52984237670898 -10.9047966003418 37.61734390258789 -13.09331703186035 C 39.70576477050781 -15.28277683258057 42.24418258666992 -17.00751686096191 45.16212463378906 -18.21959686279297 C 48.07826232910156 -19.4308967590332 51.35190200805664 -20.04509735107422 54.89214324951172 -20.04511642456055 C 58.43222427368164 -20.04511642456055 61.71140289306641 -19.43095588684082 64.63860321044922 -18.21971702575684 C 67.56776428222656 -17.00763702392578 70.11192321777344 -15.28285694122314 72.20042419433594 -13.09331703186035 C 74.28790283203125 -10.9047966003418 75.92638397216797 -8.265437126159668 77.07034301757812 -5.248576641082764 C 78.21316528320312 -2.234656810760498 78.79262542724609 1.120963215827942 78.79262542724609 4.725083351135254 C 78.79262542724609 8.329203605651855 78.21316528320312 11.68482303619385 77.07034301757812 14.69874286651611 C 75.92630767822266 17.71584320068359 74.28766632080078 20.34972381591797 72.19998168945312 22.52722358703613 C 70.11136627197266 24.70566368103027 67.56708526611328 26.41914367675781 64.63786315917969 27.62002372741699 C 61.71088409423828 28.8199634552002 58.43196487426758 29.42838287353516 54.89214324951172 29.42838287353516 Z M 54.89214324951172 -13.92519664764404 C 52.37252426147461 -13.92519664764404 50.05250549316406 -13.49269676208496 47.99652481079102 -12.63967704772949 C 45.94388198852539 -11.78803634643555 44.1672248840332 -10.55395698547363 42.71592330932617 -8.97171688079834 C 41.26322555541992 -7.387956619262695 40.12718200683594 -5.419796943664551 39.3393440246582 -3.121916770935059 C 38.54922485351562 -0.8173968195915222 38.14860534667969 1.822723150253296 38.14860534667969 4.725083351135254 C 38.14860534667969 7.627323150634766 38.5491828918457 10.26168346405029 39.33922576904297 12.55502319335938 C 40.1270637512207 14.84196281433105 41.26314544677734 16.80460357666016 42.71592330932617 18.38844299316406 C 44.16696548461914 19.97040367126465 45.94326400756836 21.19870376586914 47.9954833984375 22.03924369812012 C 50.05180358886719 22.88142395019531 52.37216567993164 23.30846405029297 54.89214324951172 23.30846405029297 C 57.43432235717773 23.30846405029297 59.76596450805664 22.88142395019531 61.82228469848633 22.03924369812012 C 63.87420272827148 21.19882392883301 65.64464569091797 19.97074317932129 67.08448028564453 18.38912391662598 C 68.52644348144531 16.80514335632324 69.6571044921875 14.84226322174072 70.44508361816406 12.55502319335938 C 71.23512268066406 10.26168346405029 71.63570404052734 7.627323150634766 71.63570404052734 4.725083351135254 C 71.63570404052734 1.822723150253296 71.23508453369141 -0.8173968195915222 70.44496154785156 -3.121916770935059 C 69.656982421875 -5.420116901397705 68.5263671875 -7.388516902923584 67.08448028564453 -8.972396850585938 C 65.64438629150391 -10.55431652069092 63.87358474731445 -11.78817653656006 61.82124328613281 -12.63967704772949 C 59.76526260375977 -13.49269676208496 57.43396377563477 -13.92519664764404 54.89214324951172 -13.92519664764404 Z M 132.1990966796875 28.3412036895752 L 132.0075378417969 28.3412036895752 L 126.186882019043 28.3412036895752 L 125.9966812133789 28.3412036895752 L 125.9459457397461 28.15788269042969 L 116.3772583007812 -6.415862083435059 C 116.2653579711914 -6.77426815032959 116.1575317382812 -7.160277843475342 116.0567626953125 -7.563216686248779 L 115.9769668579102 -7.882427215576172 C 115.9471969604492 -7.772068023681641 115.91748046875 -7.663511753082275 115.8878860473633 -7.556956768035889 C 115.7767486572266 -7.156833648681641 115.6638565063477 -6.77290153503418 115.5522994995117 -6.415700912475586 L 105.9165802001953 28.15832328796387 L 105.8656234741211 28.3412036895752 L 105.6757659912109 28.3412036895752 L 99.85512542724609 28.3412036895752 L 99.66356658935547 28.3412036895752 L 99.61372375488281 28.15624237060547 L 87.23398590087891 -17.79507637023926 L 87.14912414550781 -18.11011695861816 L 87.47538757324219 -18.11011695861816 L 92.86112213134766 -18.11011695861816 C 93.49312591552734 -18.11011695861816 94.03286743164062 -17.94721603393555 94.46536254882812 -17.62591743469238 C 94.90144348144531 -17.3019962310791 95.18612670898438 -16.88345718383789 95.31150054931641 -16.38197708129883 L 102.6403427124023 14.95209884643555 C 102.7963409423828 15.55401134490967 102.9488906860352 16.20951080322266 103.0937652587891 16.90044403076172 C 103.1584014892578 17.20869636535645 103.2223281860352 17.52788925170898 103.2851638793945 17.85610580444336 C 103.3588104248047 17.52117538452148 103.4335861206055 17.19424247741699 103.5090866088867 16.87710380554199 C 103.6767349243164 16.17296028137207 103.8639068603516 15.52029800415039 104.0654525756836 14.93711376190186 L 112.7634048461914 -16.38821601867676 L 112.7656860351562 -16.39647674560547 L 112.7685470581055 -16.40455627441406 C 112.9170227050781 -16.82517623901367 113.207160949707 -17.21647644042969 113.6309204101562 -17.56755638122559 C 114.0653839111328 -17.92757606506348 114.5973815917969 -18.11011695861816 115.2121047973633 -18.11011695861816 L 117.0854263305664 -18.11011695861816 C 117.7214431762695 -18.11011695861816 118.247184753418 -17.94497680664062 118.6480407714844 -17.6192569732666 C 119.0366439819336 -17.30353736877441 119.3318023681641 -16.8980770111084 119.5253601074219 -16.41417694091797 L 119.5305023193359 -16.40133666992188 L 119.5342025756836 -16.38797760009766 L 128.1987609863281 14.93744850158691 C 128.3998413085938 15.51919174194336 128.5867462158203 16.15392112731934 128.7543487548828 16.82418251037598 C 128.8236846923828 17.1015625 128.8924865722656 17.38648223876953 128.9603881835938 17.67745971679688 C 129.0117340087891 17.39064025878906 129.0649261474609 17.109619140625 129.1196899414062 16.8358039855957 C 129.2536315917969 16.16604042053223 129.4008178710938 15.53186321258545 129.5571899414062 14.95071601867676 L 136.9183197021484 -16.37851715087891 L 136.9194793701172 -16.38339614868164 L 136.9208221435547 -16.38821601867676 C 137.0460815429688 -16.83939743041992 137.3278198242188 -17.24271774291992 137.7581787109375 -17.58701705932617 C 138.1920166015625 -17.93411636352539 138.722900390625 -18.11011695861816 139.3360595703125 -18.11011695861816 L 144.3872985839844 -18.11011695861816 L 144.7135620117188 -18.11011695861816 L 144.6287078857422 -17.79507637023926 L 132.2489471435547 28.15624237060547 L 132.1990966796875 28.3412036895752 Z"/><path class="e" d="M 54.89214324951172 -19.79511833190918 C 51.36856079101562 -19.79509925842285 48.15718078613281 -19.19297790527344 45.25800323486328 -17.98871803283691 C 42.35886383056641 -16.78443908691406 39.87226104736328 -15.09513854980469 37.79824066162109 -12.9207592010498 C 35.7242431640625 -10.74639892578125 34.11854553222656 -8.159458160400391 32.98118591308594 -5.159938812255859 C 31.84382629394531 -2.160418510437012 31.27512359619141 1.134581565856934 31.27512359619141 4.725081443786621 C 31.27512359619141 8.315581321716309 31.84382629394531 11.61058139801025 32.98118591308594 14.6101016998291 C 34.11854553222656 17.60962104797363 35.7242431640625 20.19098091125488 37.79824066162109 22.35420227050781 C 39.87226104736328 24.51742172241211 42.35886383056641 26.19558143615723 45.25800323486328 27.38870048522949 C 48.15718078613281 28.58182144165039 51.36856079101562 29.17838096618652 54.89214324951172 29.17838096618652 C 58.41574096679688 29.17838096618652 61.63270568847656 28.58182144165039 64.54302215576172 27.38870048522949 C 67.45332336425781 26.19558143615723 69.94550323486328 24.51742172241211 72.01952362060547 22.35420227050781 C 74.09352111816406 20.19098091125488 75.69920349121094 17.60962104797363 76.83657836914062 14.6101016998291 C 77.97394561767578 11.61058139801025 78.54262542724609 8.315581321716309 78.54262542724609 4.725081443786621 C 78.54262542724609 1.134581565856934 77.97394561767578 -2.160418510437012 76.83657836914062 -5.159938812255859 C 75.69920349121094 -8.159458160400391 74.09352111816406 -10.74637794494629 72.01952362060547 -12.9207592010498 C 69.94550323486328 -15.09513854980469 67.45332336425781 -16.78443908691406 64.54302215576172 -17.98871803283691 C 61.63270568847656 -19.19297790527344 58.41574096679688 -19.79511833190918 54.89214324951172 -19.79511833190918 M 54.89214324951172 23.5584602355957 C 52.32752227783203 23.5584602355957 49.99704742431641 23.1291618347168 47.90070343017578 22.27058029174805 C 45.80440521240234 21.4119815826416 44.01472473144531 20.17426109313965 42.53168487548828 18.55742263793945 C 41.04864501953125 16.94058227539062 39.90572357177734 14.96692085266113 39.10286712646484 12.63644123077393 C 38.30002593994141 10.30596160888672 37.89860534667969 7.668841361999512 37.89860534667969 4.725081443786621 C 37.89860534667969 1.781321048736572 38.30002593994141 -0.8613786697387695 39.10286712646484 -3.202999114990234 C 39.90572357177734 -5.544618606567383 41.04864501953125 -7.523859024047852 42.53168487548828 -9.14069938659668 C 44.01472473144531 -10.75753784179688 45.80440521240234 -12.00083923339844 47.90070343017578 -12.87059783935547 C 49.99704742431641 -13.74031829833984 52.32752227783203 -14.17519950866699 54.89214324951172 -14.17519950866699 C 57.47910308837891 -14.17519950866699 59.82072448730469 -13.74031829833984 61.91704559326172 -12.87059783935547 C 64.01336669921875 -12.00083923339844 65.79746246337891 -10.75753784179688 67.26934051513672 -9.14069938659668 C 68.74122619628906 -7.523859024047852 69.87858581542969 -5.544618606567383 70.68144226074219 -3.202999114990234 C 71.48428344726562 -0.8613786697387695 71.88570404052734 1.781321048736572 71.88570404052734 4.725081443786621 C 71.88570404052734 7.668841361999512 71.48428344726562 10.30596160888672 70.68144226074219 12.63644123077393 C 69.87858581542969 14.96692085266113 68.74122619628906 16.94058227539062 67.26934051513672 18.55742263793945 C 65.79746246337891 20.17426109313965 64.01336669921875 21.4119815826416 61.91704559326172 22.27058029174805 C 59.82072448730469 23.1291618347168 57.47910308837891 23.5584602355957 54.89214324951172 23.5584602355957 M -12.9180908203125 -18.47375869750977 L -12.9180908203125 29.46272087097168 L -6.461883544921875 29.46272087097168 L -6.461883544921875 9.458520889282227 L -1.544448852539062 9.458520889282227 C -0.630096435546875 9.458520889282227 0.0445098876953125 9.575601577758789 0.4793853759765625 9.809761047363281 C 0.9142608642578125 10.04392147064209 1.321258544921875 10.42862129211426 1.70037841796875 10.9638614654541 L 14.14446258544922 28.09120178222656 C 14.70200347900391 29.00554084777832 15.57174682617188 29.46272087097168 16.75370025634766 29.46272087097168 L 22.5074462890625 29.46272087097168 L 8.524566650390625 10.42862129211426 C 7.92242431640625 9.536581039428711 7.208786010742188 8.856381416320801 6.383644104003906 8.3880615234375 C 8.234642028808594 7.964341163635254 9.8905029296875 7.339900970458984 11.35124206542969 6.514760971069336 C 12.81196594238281 5.689620971679688 14.0496826171875 4.691641330718994 15.06438446044922 3.520821094512939 C 16.0791015625 2.350001335144043 16.85406494140625 1.028661727905273 17.38930511474609 -0.4432191848754883 C 17.92452239990234 -1.915099143981934 18.19214630126953 -3.498478889465332 18.19214630126953 -5.193378448486328 C 18.19214630126953 -7.222799301147461 17.84646606445312 -9.057058334350586 17.15512084960938 -10.69621849060059 C 16.46380615234375 -12.3353385925293 15.39890289306641 -13.7347583770752 13.96048736572266 -14.89441871643066 C 12.52206420898438 -16.05407905578613 10.69892120361328 -16.94055938720703 8.491104125976562 -17.5538387298584 C 6.283287048339844 -18.16711807250977 3.662887573242188 -18.47375869750977 0.6298980712890625 -18.47375869750977 L -12.9180908203125 -18.47375869750977 M 0.3623046875 4.7418212890625 L -6.461883544921875 4.7418212890625 L -6.461883544921875 -13.35563850402832 L 0.6298980712890625 -13.35563850402832 C 4.37652587890625 -13.35563850402832 7.186485290527344 -12.63083839416504 9.059783935546875 -11.18125915527344 C 10.93308258056641 -9.731678009033203 11.86974334716797 -7.579618453979492 11.86974334716797 -4.725058555603027 C 11.86974334716797 -3.32007884979248 11.62442016601562 -2.037758827209473 11.13380432128906 -0.8780984878540039 C 10.64316558837891 0.2815608978271484 9.912803649902344 1.279541015625 8.942703247070312 2.115841388702393 C 7.972602844238281 2.952141284942627 6.768325805664062 3.598881244659424 5.329902648925781 4.056041240692139 C 3.891464233398438 4.513221263885498 2.235610961914062 4.7418212890625 0.3623046875 4.7418212890625 M 87.47538757324219 -17.8601188659668 L 99.85512542724609 28.09120178222656 L 105.6757659912109 28.09120178222656 L 115.3124847412109 -6.48649787902832 C 115.4239654541016 -6.843318939208984 115.5354843139648 -7.222438812255859 115.6470031738281 -7.623859405517578 C 115.7585067749023 -8.025278091430664 115.870002746582 -8.449018478393555 115.9815216064453 -8.895038604736328 C 116.0930252075195 -8.448999404907227 116.1989669799805 -8.025278091430664 116.2993011474609 -7.623859405517578 C 116.3996658325195 -7.222438812255859 116.5055999755859 -6.843318939208984 116.6171035766602 -6.48649787902832 L 126.186882019043 28.09120178222656 L 132.0075378417969 28.09120178222656 L 144.3872985839844 -17.8601188659668 L 139.3360595703125 -17.8601188659668 C 138.7785186767578 -17.8601188659668 138.3046112060547 -17.70401954650879 137.9143676757812 -17.39179801940918 C 137.5240783691406 -17.0795783996582 137.2731628417969 -16.72275924682617 137.1616973876953 -16.32133865356445 L 129.7996978759766 15.0115213394165 C 129.6435852050781 15.5913610458374 129.4986267089844 16.21580123901367 129.3648223876953 16.88482093811035 C 129.2310180664062 17.55386161804199 129.1083374023438 18.25636100769043 128.9968566894531 18.99230194091797 C 128.8407440185547 18.25636100769043 128.6790618896484 17.55386161804199 128.5117797851562 16.88482093811035 C 128.3445281982422 16.21580123901367 128.1605377197266 15.5913610458374 127.9598617553711 15.0115213394165 L 119.2932434082031 -16.32133865356445 C 119.1148452758789 -16.76735877990723 118.8472213745117 -17.13531875610352 118.4904022216797 -17.42523956298828 C 118.1335601806641 -17.71515846252441 117.6652450561523 -17.8601188659668 117.0854263305664 -17.8601188659668 L 115.2121047973633 -17.8601188659668 C 114.6545867919922 -17.8601188659668 114.1806640625 -17.69843864440918 113.7904052734375 -17.37505912780762 C 113.400146484375 -17.05169868469238 113.1380844116211 -16.700439453125 113.0042877197266 -16.32133865356445 L 104.3042449951172 15.0115213394165 C 104.1035461425781 15.5913610458374 103.9195404052734 16.23252105712891 103.7522811889648 16.93500137329102 C 103.5850448608398 17.63750076293945 103.4233245849609 18.37902069091797 103.2672271728516 19.15956115722656 C 103.1334228515625 18.37900161743164 102.9940414428711 17.64308166503906 102.8490829467773 16.95174026489258 C 102.7041244506836 16.26040077209473 102.5536041259766 15.61366081237793 102.3974838256836 15.0115213394165 L 95.06896209716797 -16.32133865356445 C 94.95745849609375 -16.76735877990723 94.70655822753906 -17.13531875610352 94.3162841796875 -17.42523956298828 C 93.92600250244141 -17.71515846252441 93.44096374511719 -17.8601188659668 92.86112213134766 -17.8601188659668 L 87.47538757324219 -17.8601188659668 M 54.89214324951172 -20.29511833190918 C 58.46520233154297 -20.29511833190918 61.77654266357422 -19.67457962036133 64.73420715332031 -18.45071792602539 C 67.69576263427734 -17.22523880004883 70.26862335205078 -15.48079872131348 72.38132476806641 -13.26585960388184 C 74.49198913574219 -11.05305862426758 76.14823913574219 -8.385478973388672 77.30410766601562 -5.337218284606934 C 78.45770263671875 -2.294858932495117 79.04262542724609 1.090580940246582 79.04262542724609 4.725081443786621 C 79.04262542724609 8.359580993652344 78.45770263671875 11.74502182006836 77.30410766601562 14.78738117218018 C 76.14808654785156 17.83608245849609 74.49152374267578 20.49834060668945 72.38044738769531 22.70024108886719 C 70.26750183105469 24.9040412902832 67.69442749023438 26.63712120056152 64.73268127441406 27.85134124755859 C 61.77548217773438 29.06368064880371 58.46464538574219 29.67838096618652 54.89214324951172 29.67838096618652 C 51.31942749023438 29.67838096618652 48.01402282714844 29.0635814666748 45.06772613525391 27.85108184814453 C 42.11734008789062 26.63686180114746 39.55010223388672 24.90388107299805 37.43732452392578 22.70024108886719 C 35.32622528076172 20.4983024597168 33.66966247558594 17.83604049682617 32.51366424560547 14.78738117218018 C 31.36004638671875 11.7450008392334 30.77512359619141 8.359560966491699 30.77512359619141 4.725081443786621 C 30.77512359619141 1.090600967407227 31.36004638671875 -2.294838905334473 32.51366424560547 -5.337218284606934 C 33.66950225830078 -8.385478973388672 35.32576751708984 -11.05305862426758 37.43644714355469 -13.26585960388184 C 39.54898071289062 -15.48061943054199 42.11600494384766 -17.22497940063477 45.06620025634766 -18.45045852661133 C 48.01290130615234 -19.67445945739746 51.31882476806641 -20.29509925842285 54.89214324951172 -20.29511833190918 Z M 54.89214324951172 23.0584602355957 C 57.40168762207031 23.0584602355957 59.70144653320312 22.6377010345459 61.72754669189453 21.80788040161133 C 63.74482727050781 20.98166084289551 65.48496246337891 19.77480125427246 66.89960479736328 18.22084045410156 C 68.31854248046875 16.66216087341309 69.431884765625 14.72850131988525 70.20870208740234 12.47358131408691 C 70.98970031738281 10.20652103424072 71.38570404052734 7.599541187286377 71.38570404052734 4.725081443786621 C 71.38570404052734 1.850361347198486 70.9896240234375 -0.7624588012695312 70.20846557617188 -3.040839195251465 C 69.43162536621094 -5.306578636169434 68.318359375 -7.24561882019043 66.89960479736328 -8.804119110107422 C 65.48442077636719 -10.35865783691406 63.74358367919922 -11.57143783569336 61.72542572021484 -12.40877914428711 C 59.69992065429688 -13.24911880493164 57.40088653564453 -13.67519950866699 54.89214324951172 -13.67519950866699 C 52.40562438964844 -13.67519950866699 50.11784362792969 -13.24911880493164 48.09230041503906 -12.40875816345215 C 46.07356262207031 -11.5711784362793 44.32666015625 -10.35793876647949 42.90016174316406 -8.802719116210938 C 41.470947265625 -7.244558334350586 40.35248565673828 -5.305978775024414 39.57584381103516 -3.040839195251465 C 38.79468536376953 -0.7624588012695312 38.39860534667969 1.850361347198486 38.39860534667969 4.725081443786621 C 38.39860534667969 7.599541187286377 38.79460144042969 10.20652103424072 39.57560729980469 12.47358131408691 C 40.35222625732422 14.72790145874023 41.47076416015625 16.66110229492188 42.90016174316406 18.21944046020508 C 44.32614135742188 19.77408218383789 46.07232666015625 20.98140144348145 48.09020233154297 21.80788040161133 C 50.11632537841797 22.6377010345459 52.40482330322266 23.0584602355957 54.89214324951172 23.0584602355957 Z M -13.4180908203125 -18.97375869750977 L -12.9180908203125 -18.97375869750977 L 0.6298980712890625 -18.97375869750977 C 3.693946838378906 -18.97375869750977 6.383842468261719 -18.65811920166016 8.624923706054688 -18.03559875488281 C 10.88850402832031 -17.40683937072754 12.78922271728516 -16.48095893859863 14.27430725097656 -15.28367805480957 C 15.77102661132812 -14.07699966430664 16.89528656005859 -12.59893798828125 17.61582183837891 -10.89051818847656 C 18.33002471923828 -9.197177886962891 18.69214630126953 -7.280378341674805 18.69214630126953 -5.193378448486328 C 18.69214630126953 -3.447978973388672 18.41190338134766 -1.792298316955566 17.85920715332031 -0.2723588943481445 C 17.30550384521484 1.250261306762695 16.49232482910156 2.636641502380371 15.44222259521484 3.848281383514404 C 14.39470672607422 5.056981086730957 13.10102081298828 6.100581169128418 11.59716033935547 6.950101375579834 C 10.38823699951172 7.632998943328857 9.035179138183594 8.18709659576416 7.563377380371094 8.60284423828125 C 8.069450378417969 9.027164459228516 8.527862548828125 9.541384696960449 8.9332275390625 10.1403636932373 L 22.910400390625 29.16670036315918 L 23.49516296386719 29.96272087097168 L 22.5074462890625 29.96272087097168 L 16.75370025634766 29.96272087097168 C 15.39855194091797 29.96272087097168 14.380859375 29.42667007446289 13.72847747802734 28.36929130554199 L 1.295883178710938 11.25776100158691 L 1.294097900390625 11.25532150268555 L 1.2923583984375 11.25286102294922 C 0.959991455078125 10.78360176086426 0.6067047119140625 10.44618129730225 0.242340087890625 10.25000095367432 C -0.0046234130859375 10.11702156066895 -0.51507568359375 9.958520889282227 -1.544448852539062 9.958520889282227 L -5.961883544921875 9.958520889282227 L -5.961883544921875 29.46272087097168 L -5.961883544921875 29.96272087097168 L -6.461883544921875 29.96272087097168 L -12.9180908203125 29.96272087097168 L -13.4180908203125 29.96272087097168 L -13.4180908203125 29.46272087097168 L -13.4180908203125 -18.47375869750977 L -13.4180908203125 -18.97375869750977 Z M 0.3623046875 4.2418212890625 C 2.175369262695312 4.2418212890625 3.795745849609375 4.019001483917236 5.178466796875 3.579521179199219 C 6.545463562011719 3.145061492919922 7.70208740234375 2.525201320648193 8.616226196289062 1.737141132354736 C 9.523063659667969 0.9553813934326172 10.21518707275391 0.009921073913574219 10.67332458496094 -1.072918891906738 C 11.13542175292969 -2.16519832611084 11.36974334716797 -3.393959045410156 11.36974334716797 -4.725058555603027 C 11.36974334716797 -6.07659912109375 11.14736175537109 -7.272819519042969 10.70878601074219 -8.280479431152344 C 10.27658081054688 -9.273538589477539 9.618820190429688 -10.11645889282227 8.7537841796875 -10.78581809997559 C 6.978904724121094 -12.15925788879395 4.245620727539062 -12.85563850402832 0.6298980712890625 -12.85563850402832 L -5.961883544921875 -12.85563850402832 L -5.961883544921875 4.2418212890625 L 0.3623046875 4.2418212890625 Z M 86.82284545898438 -18.3601188659668 L 87.47538757324219 -18.3601188659668 L 92.86112213134766 -18.3601188659668 C 93.54798889160156 -18.3601188659668 94.13787841796875 -18.18061828613281 94.61444091796875 -17.82661819458008 C 95.09815979003906 -17.4672794342041 95.41428375244141 -17.00163841247559 95.55404663085938 -16.44259834289551 L 95.55496215820312 -16.43891906738281 L 95.55582427978516 -16.43521881103516 L 102.8829956054688 14.89187812805176 C 103.0264129638672 15.44540691375732 103.1668930053711 16.04378700256348 103.3011703491211 16.67293167114258 C 103.4608612060547 16.01947021484375 103.6373901367188 15.41127967834473 103.8265686035156 14.86295700073242 L 112.5225067138672 -16.45511817932129 L 112.5270843505859 -16.47159957885742 L 112.5327835083008 -16.48775863647461 C 112.6965026855469 -16.95159912109375 113.0122833251953 -17.37965965270996 113.4714050292969 -17.76005935668945 C 113.951904296875 -18.15823936462402 114.5375671386719 -18.3601188659668 115.2121047973633 -18.3601188659668 L 117.0854263305664 -18.3601188659668 C 117.7803268432617 -18.3601188659668 118.3591003417969 -18.17613792419434 118.8056869506836 -17.81329917907715 C 119.2277221679688 -17.47039794921875 119.5479431152344 -17.03091812133789 119.7574844360352 -16.50701904296875 L 119.7677612304688 -16.48131942749023 L 119.775146484375 -16.45463943481445 L 128.4375457763672 14.86298942565918 C 128.6143341064453 15.37514305114746 128.7801361083984 15.92731857299805 128.9315185546875 16.50769805908203 C 129.0506439208984 15.93651676177979 129.1792602539062 15.39340400695801 129.3148040771484 14.88932609558105 L 136.6749572753906 -16.43569946289062 L 136.67724609375 -16.44545936584473 L 136.679931640625 -16.45511817932129 C 136.8195495605469 -16.95793914794922 137.1297912597656 -17.40445899963379 137.6020202636719 -17.7822380065918 C 138.0812835693359 -18.16567802429199 138.6647033691406 -18.3601188659668 139.3360595703125 -18.3601188659668 L 144.3872985839844 -18.3601188659668 L 145.0398406982422 -18.3601188659668 L 144.8700866699219 -17.73005867004395 L 132.4903259277344 28.22126197814941 L 132.3906707763672 28.59120178222656 L 132.0075378417969 28.59120178222656 L 126.186882019043 28.59120178222656 L 125.8064651489258 28.59120178222656 L 125.7050018310547 28.22456169128418 L 116.1374130249023 -6.345222473144531 C 116.0793609619141 -6.531303405761719 116.0224456787109 -6.724523544311523 115.9670562744141 -6.923486709594727 C 115.9086685180664 -6.724479675292969 115.8502044677734 -6.531154632568359 115.7921295166016 -6.345096588134766 L 106.1574020385742 28.22544097900391 L 106.0554656982422 28.59120178222656 L 105.6757659912109 28.59120178222656 L 99.85512542724609 28.59120178222656 L 99.47200012207031 28.59120178222656 L 99.37234497070312 28.22126197814941 L 86.99259948730469 -17.73005867004395 L 86.82284545898438 -18.3601188659668 Z"/></g><path class="b" d="M744.264,1072.52l-10.887,9.651H755.4Z" transform="translate(325.271 -794.669)"/><path class="b" d="M744.264,1072.52l-10.887,9.651H755.4Z" transform="translate(379.871 -794.669)"/><path class="b" d="M744.264,1072.52l-10.887,9.651H755.4Z" transform="translate(438.426 -794.669)"/><g class="c" transform="translate(1071.314 320.714)"><path class="d" d="M 52.98928833007812 24.5955924987793 C 49.67583084106445 24.5955924987793 46.59649658203125 24.01973915100098 43.83683013916016 22.88401031494141 C 41.05672836303711 21.73990440368652 38.63320541381836 20.1023006439209 36.63357925415039 18.01669692993164 C 34.64247512817383 15.93996810913086 33.08353805541992 13.43815517425537 32.00008010864258 10.58078002929688 C 30.92866516113281 7.755176067352295 30.38541412353516 4.625884532928467 30.38541412353516 1.279821991920471 C 30.38541412353516 -2.066240549087524 30.92866516113281 -5.195532321929932 32.00006103515625 -8.021115303039551 C 33.08274841308594 -10.87640762329102 34.64018630981445 -13.38142776489258 36.62912368774414 -15.4666576385498 C 38.62770462036133 -17.56188583374023 41.05016326904297 -19.20957374572754 43.82924652099609 -20.36396980285645 C 46.59120559692383 -21.51119804382324 49.67308044433594 -22.0929069519043 52.98928833007812 -22.0929069519043 C 56.30439376831055 -22.0929069519043 59.38999938964844 -21.51163673400879 62.16043472290039 -20.36526107788086 C 64.95030975341797 -19.2108039855957 67.37862396240234 -17.56269836425781 69.37791442871094 -15.46667766571045 C 71.36688995361328 -13.38142776489258 72.92433166503906 -10.87638664245605 74.00699615478516 -8.021115303039551 C 75.07841491699219 -5.195552825927734 75.62166595458984 -2.066261291503906 75.62166595458984 1.279821991920471 C 75.62166595458984 4.62590503692627 75.07841491699219 7.755197048187256 74.00697326660156 10.58078002929688 C 72.92353820800781 13.43815517425537 71.36460113525391 15.93996810913086 69.37347412109375 18.01669692993164 C 67.37307739257812 20.10313415527344 64.94370269775391 21.74117660522461 62.15285110473633 22.88530158996582 C 59.38466262817383 24.02015495300293 56.30158233642578 24.5955924987793 52.98928833007812 24.5955924987793 Z M 52.98928833007812 -12.30896949768066 C 51.1468505859375 -12.30896949768066 49.46681213378906 -11.99953269958496 47.99587249755859 -11.3892822265625 C 46.53837203979492 -10.78455352783203 45.33264541625977 -9.948553085327148 44.30985260009766 -8.833469390869141 C 43.28762435913086 -7.719032287597656 42.48141479492188 -6.314261436462402 41.91358184814453 -4.658115386962891 C 41.32304000854492 -2.935657262802124 41.02360153198242 -0.9378447532653809 41.02360153198242 1.279821991920471 C 41.02360153198242 3.496259450912476 41.3226432800293 5.488113403320312 41.91239166259766 7.200071811676025 C 42.48014450073242 8.848093032836914 43.28676986694336 10.24925899505615 44.30985260009766 11.36465549468994 C 45.32993698120117 12.4767599105835 46.53220748901367 13.30667591094971 47.98539352416992 13.90186405181885 C 49.45930862426758 14.5055513381958 51.14287185668945 14.81165504455566 52.98931121826172 14.81167602539062 C 54.85457992553711 14.81167602539062 56.54770660400391 14.50557231903076 58.02164459228516 13.90188407897949 C 59.4717903137207 13.30794715881348 60.66733169555664 12.48027992248535 61.67664337158203 11.37159252166748 C 62.69341278076172 10.25467586517334 63.49737167358398 8.851176261901855 64.06620788574219 7.200051307678223 C 64.65595245361328 5.488155364990234 64.95497894287109 3.496280193328857 64.95497894287109 1.279821991920471 C 64.95497894287109 -0.9378864169120789 64.65554046630859 -2.935698986053467 64.06499481201172 -4.658115386962891 C 63.49612426757812 -6.317323684692383 62.69256210327148 -7.724469661712646 61.67664337158203 -8.840407371520996 C 60.66462326049805 -9.952095031738281 59.46564483642578 -10.78582382202148 58.01116561889648 -11.3892822265625 C 56.54024887084961 -11.99953269958496 54.85064315795898 -12.30896949768066 52.98928833007812 -12.30896949768066 Z M 22.17639350891113 24.49592590332031 L 17.23774719238281 24.49592590332031 L 12.33993530273438 24.49592590332031 C 10.5025634765625 24.49592590332031 8.982349395751953 23.69187927246094 8.046123504638672 22.2288818359375 L -2.496689796447754 7.718342781066895 L -2.505523204803467 7.706176280975342 L -2.51421070098877 7.693905353546143 C -2.581261157989502 7.599258899688721 -2.63420581817627 7.538473606109619 -2.66975998878479 7.501796245574951 C -2.764517784118652 7.486697196960449 -2.942913770675659 7.467426300048828 -3.23631477355957 7.467426300048828 L -4.9222731590271 7.467426300048828 L -4.9222731590271 21.99592590332031 L -4.9222731590271 24.49592590332031 L -7.4222731590271 24.49592590332031 L -12.91808605194092 24.49592590332031 L -15.41808605194092 24.49592590332031 L -15.41808605194092 21.99592590332031 L -15.41808605194092 -18.80982398986816 L -15.41808605194092 -21.30982398986816 L -12.91808605194092 -21.30982398986816 L -1.385398149490356 -21.30982398986816 C 1.410497784614563 -21.30982398986816 3.887081146240234 -21.01567840576172 5.975539207458496 -20.43553161621094 C 8.176497459411621 -19.82413673400879 10.04572677612305 -18.9068660736084 11.53128910064697 -17.70915794372559 C 13.07503986358643 -16.4645938873291 14.23710155487061 -14.93428230285645 14.98512268066406 -13.16074085235596 C 15.70124816894531 -11.46282386779785 16.06437301635742 -9.559948921203613 16.06439399719238 -7.504969596862793 C 16.06439399719238 -5.776657104492188 15.78381061553955 -4.128761291503906 15.23043537139893 -2.607011318206787 C 14.67224788665771 -1.071969747543335 13.85153961181641 0.3267594277858734 12.79110145568848 1.550321936607361 C 11.74345588684082 2.759134531021118 10.4580602645874 3.798092842102051 8.970664024353027 4.638300895690918 C 8.646950721740723 4.821159362792969 8.313284873962402 4.99428653717041 7.970008373260498 5.15757417678833 L 19.25251770019531 20.51582145690918 L 22.17639350891113 24.49592590332031 Z M -4.9222731590271 -1.547657251358032 L -1.613210558891296 -1.547657251358032 C -0.2832939326763153 -1.547657251358032 0.8846644163131714 -1.704553008079529 1.858206033706665 -2.013969659805298 C 2.753414392471313 -2.298490524291992 3.493705987930298 -2.689636468887329 4.05847692489624 -3.176511287689209 C 4.594268798828125 -3.638407230377197 4.985206127166748 -4.171323776245117 5.253581047058105 -4.805677890777588 C 5.542164325714111 -5.487782001495361 5.682456016540527 -6.240324020385742 5.682456016540527 -7.106282234191895 C 5.682456016540527 -9.273948669433594 4.870955944061279 -10.15257358551025 4.260560035705566 -10.62490749359131 C 3.13770604133606 -11.49378204345703 1.185372710227966 -11.95303249359131 -1.385398149490356 -11.95303249359131 L -4.9222731590271 -11.95303249359131 L -4.9222731590271 -1.547657251358032 Z M 127.5340576171875 23.32842636108398 L 125.6184539794922 23.32842636108398 L 120.6636428833008 23.32842636108398 L 118.7615585327148 23.32842636108398 L 118.2542266845703 21.49526023864746 L 111.9556732177734 -1.262755990028381 L 105.6118545532227 21.49959182739258 L 105.1021423339844 23.32842636108398 L 103.2036209106445 23.32842636108398 L 98.24883270263672 23.32842636108398 L 96.33322906494141 23.32842636108398 L 95.83489227294922 21.478759765625 L 85.29668426513672 -17.63711547851562 L 84.44795227050781 -20.78744888305664 L 87.71062469482422 -20.78744888305664 L 92.29520416259766 -20.78744888305664 C 93.320556640625 -20.78744888305664 94.26441192626953 -20.48892784118652 95.02470397949219 -19.92415809631348 C 95.82028961181641 -19.33311462402344 96.36497497558594 -18.52388572692871 96.5999755859375 -17.58390808105469 L 96.60459899902344 -17.56546974182129 L 96.60891723632812 -17.54694938659668 L 101.3624038696289 2.776450157165527 L 107.0331192016602 -17.64642715454102 L 107.056037902832 -17.72890663146973 L 107.0845184326172 -17.80961608886719 C 107.3505630493164 -18.56342887878418 107.8322296142578 -19.23294830322266 108.5161666870117 -19.79961585998535 C 109.2960357666016 -20.44584465026855 110.2661056518555 -20.78744888305664 111.3213958740234 -20.78744888305664 L 112.9160385131836 -20.78744888305664 C 114.2615814208984 -20.78744888305664 115.1663970947266 -20.28178215026855 115.6884994506836 -19.85757446289062 C 116.3251647949219 -19.34024047851562 116.8056030273438 -18.68365669250488 117.1166458129883 -17.90599060058594 L 117.1680603027344 -17.77746963500977 L 117.2049560546875 -17.64405250549316 L 122.822509765625 2.665326356887817 L 127.5721664428711 -17.54940795898438 L 127.5836410522461 -17.59821891784668 L 127.5970611572266 -17.64653205871582 C 127.8316040039062 -18.4910945892334 128.3460540771484 -19.24992752075195 129.0848236083984 -19.8409481048584 C 129.8588256835938 -20.46015739440918 130.8173522949219 -20.78744888305664 131.8568115234375 -20.78744888305664 L 136.1566619873047 -20.78744888305664 L 139.4193267822266 -20.78744888305664 L 138.5706024169922 -17.63711547851562 L 128.0323944091797 21.478759765625 L 127.5340576171875 23.32842636108398 Z"/><path class="f" d="M 52.98929595947266 -19.59289360046387 C 49.9898681640625 -19.59289360046387 47.25617980957031 -19.08034515380859 44.78827667236328 -18.05520248413086 C 42.32038879394531 -17.03008460998535 40.20367431640625 -15.59206008911133 38.43817901611328 -13.74113082885742 C 36.67267608642578 -11.89020252227783 35.30584716796875 -9.688083648681641 34.33767700195312 -7.134750366210938 C 33.36948394775391 -4.581440925598145 32.88539123535156 -1.776583671569824 32.88539123535156 1.279820919036865 C 32.88539123535156 4.336225509643555 33.36948394775391 7.141082763671875 34.33767700195312 9.694392204284668 C 35.30584716796875 12.24772548675537 36.67267608642578 14.44510650634766 38.43817901611328 16.28653526306152 C 40.20367431640625 18.12796401977539 42.32036590576172 19.55651092529297 44.78827667236328 20.57213020324707 C 47.25617980957031 21.58777236938477 49.9898681640625 22.09558296203613 52.98929595947266 22.09558296203613 C 55.98874664306641 22.09558296203613 58.72715759277344 21.58777236938477 61.20455932617188 20.57213020324707 C 63.68193817138672 19.55651092529297 65.80339050292969 18.12796401977539 67.56889343261719 16.28653526306152 C 69.33439636230469 14.44510650634766 70.70122528076172 12.24772548675537 71.66938781738281 9.694392204284668 C 72.63758087158203 7.141082763671875 73.12167358398438 4.336225509643555 73.12167358398438 1.279820919036865 C 73.12165832519531 -1.776583671569824 72.63758087158203 -4.581440925598145 71.66938781738281 -7.134750366210938 C 70.70122528076172 -9.688083648681641 69.33439636230469 -11.89020252227783 67.56889343261719 -13.74113082885742 C 65.80339050292969 -15.59206008911133 63.68196487426758 -17.03008460998535 61.20455932617188 -18.05520248413086 C 58.72715759277344 -19.08034515380859 55.98874664306641 -19.59289360046387 52.98929595947266 -19.59289360046387 M 52.98929595947266 17.31165313720703 C 50.80617523193359 17.31165313720703 48.82234191894531 16.94622421264648 47.03786468505859 16.2153434753418 C 45.25337219238281 15.48446369171143 43.72991943359375 14.43086814880371 42.46749114990234 13.05453491210938 C 41.20505523681641 11.67822551727295 40.23215484619141 9.998153686523438 39.54872894287109 8.014345169067383 C 38.86531829833984 6.030535221099854 38.52360534667969 3.785677909851074 38.52360534667969 1.279820919036865 C 38.52360534667969 -1.226036310195923 38.86531829833984 -3.475631713867188 39.54872894287109 -5.468917369842529 C 40.23215484619141 -7.462226867675781 41.20505523681641 -9.147036552429199 42.46749114990234 -10.52336978912354 C 43.72991943359375 -11.89970302581787 45.25337219238281 -12.9580602645874 47.03786468505859 -13.69844055175781 C 48.82234191894531 -14.43879890441895 50.80617523193359 -14.8089656829834 52.98929595947266 -14.8089656829834 C 55.19143676757812 -14.8089656829834 57.18472290039062 -14.43879890441895 58.96922302246094 -13.69844055175781 C 60.75370025634766 -12.9580602645874 62.27239227294922 -11.89970302581787 63.52534484863281 -10.52336978912354 C 64.77827453613281 -9.147036552429199 65.74644470214844 -7.462226867675781 66.42987060546875 -5.468917369842529 C 67.11327362060547 -3.475631713867188 67.45498657226562 -1.226036310195923 67.45498657226562 1.279820919036865 C 67.45498657226562 3.785677909851074 67.11327362060547 6.030535221099854 66.42987060546875 8.014345169067383 C 65.74644470214844 9.998153686523438 64.77824401855469 11.67820167541504 63.52534484863281 13.05453491210938 C 62.27239227294922 14.43086814880371 60.75370025634766 15.48446369171143 58.96922302246094 16.2153434753418 C 57.18472290039062 16.94622421264648 55.19143676757812 17.31165313720703 52.98929595947266 17.31165313720703 M -12.91808319091797 -18.80982208251953 L -12.91808319091797 21.99591636657715 L -7.422279357910156 21.99591636657715 L -7.422279357910156 4.967439651489258 L -3.236320495605469 4.967439651489258 C -2.457984924316406 4.967439651489258 -1.88372802734375 5.06708288192749 -1.513534545898438 5.266416072845459 C -1.14337158203125 5.465749740600586 -0.7968902587890625 5.793225288391113 -0.47418212890625 6.248844623565674 L 10.11882019042969 20.82841682434082 C 10.59341430664062 21.60674858093262 11.33377075195312 21.99591636657715 12.33991241455078 21.99591636657715 L 17.23774719238281 21.99591636657715 L 5.334892272949219 5.793225288391113 C 4.822319030761719 5.033868789672852 4.21484375 4.454868316650391 3.512443542480469 4.056201934814453 C 5.088081359863281 3.695511341094971 6.497627258300781 3.163963794708252 7.741081237792969 2.461559057235718 C 8.984535217285156 1.759178042411804 10.03813171386719 0.9096304178237915 10.90189361572266 -0.08701252937316895 C 11.76565551757812 -1.08365535736084 12.42534637451172 -2.208464622497559 12.88096618652344 -3.461393356323242 C 13.33655548095703 -4.714322090148926 13.56436920166016 -6.062179565429688 13.56436920166016 -7.504940986633301 C 13.56436920166016 -9.232464790344238 13.27013397216797 -10.79389381408691 12.68163299560547 -12.1892032623291 C 12.09313201904297 -13.58451271057129 11.18665313720703 -14.7757511138916 9.962203979492188 -15.76291656494141 C 8.737724304199219 -16.75005912780762 7.185798645019531 -17.50467872619629 5.306388854980469 -18.0267276763916 C 3.427009582519531 -18.54879760742188 1.196395874023438 -18.80982208251953 -1.385391235351562 -18.80982208251953 L -12.91808319091797 -18.80982208251953 M -1.613204956054688 0.9523446559906006 L -7.422279357910156 0.9523446559906006 L -7.422279357910156 -14.45303535461426 L -1.385391235351562 -14.45303535461426 C 1.80389404296875 -14.45303535461426 4.195846557617188 -13.8360595703125 5.790489196777344 -12.60210800170898 C 7.3851318359375 -11.36815547943115 8.182464599609375 -9.536226272583008 8.182464599609375 -7.106274604797363 C 8.182464599609375 -5.910298347473145 7.9736328125 -4.818726539611816 7.555984497070312 -3.831560134887695 C 7.138343811035156 -2.844417095184326 6.516632080078125 -1.994893550872803 5.690818786621094 -1.282988548278809 C 4.865036010742188 -0.5711076259613037 3.839889526367188 -0.02056002616882324 2.615440368652344 0.3686065673828125 C 1.3909912109375 0.7577732801437378 -0.01856231689453125 0.9523446559906006 -1.613204956054688 0.9523446559906006 M 87.71060180664062 -18.2874641418457 L 98.24882507324219 20.82841682434082 L 103.2036056518555 20.82841682434082 L 111.4068450927734 -8.605703353881836 C 111.5017471313477 -8.909440994262695 111.5966796875 -9.232178688049316 111.6916046142578 -9.573869705200195 C 111.7865142822266 -9.915583610534668 111.8814163208008 -10.27627468109131 111.9763717651367 -10.65596485137939 C 112.0712738037109 -10.27627468109131 112.1614379882812 -9.915583610534668 112.2468719482422 -9.573869705200195 C 112.3322982788086 -9.232178688049316 112.4224624633789 -8.909440994262695 112.5173950195312 -8.605703353881836 L 120.6636276245117 20.82841682434082 L 125.6184387207031 20.82841682434082 L 136.1566467285156 -18.2874641418457 L 131.8568267822266 -18.2874641418457 C 131.3822326660156 -18.2874641418457 130.9787902832031 -18.15458297729492 130.6466064453125 -17.88879776000977 C 130.3143615722656 -17.62301254272461 130.1007995605469 -17.31927490234375 130.0058898925781 -16.97756004333496 L 123.7390365600586 9.694392204284668 C 123.6061325073242 10.18798732757568 123.4827499389648 10.7195348739624 123.3688201904297 11.28903484344482 C 123.2549362182617 11.85855865478516 123.1505126953125 12.45655918121338 123.0556030273438 13.08301162719727 C 122.922721862793 12.45655918121338 122.7850799560547 11.85855865478516 122.6427001953125 11.28903484344482 C 122.5003204345703 10.7195348739624 122.3437042236328 10.18798732757568 122.1728668212891 9.694392204284668 L 114.7954406738281 -16.97756004333496 C 114.6435852050781 -17.35725021362305 114.4157485961914 -17.67046546936035 114.1120376586914 -17.91727447509766 C 113.8082733154297 -18.16406059265137 113.4096069335938 -18.2874641418457 112.9160308837891 -18.2874641418457 L 111.3213958740234 -18.2874641418457 C 110.846794128418 -18.2874641418457 110.4433898925781 -18.14982223510742 110.1111755371094 -17.87455940246582 C 109.7789611816406 -17.59929847717285 109.5558929443359 -17.3002986907959 109.4419860839844 -16.97756004333496 L 102.0361022949219 9.694392204284668 C 101.8652725219727 10.18798732757568 101.7086334228516 10.73377323150635 101.5662536621094 11.33174991607666 C 101.4238891601562 11.92974948883057 101.286247253418 12.56096363067627 101.1533660888672 13.22539234161377 C 101.0394592285156 12.56096363067627 100.9208221435547 11.93448734283447 100.7974166870117 11.34598731994629 C 100.6740112304688 10.75748729705811 100.5458908081055 10.20696353912354 100.4129867553711 9.694392204284668 L 94.17462921142578 -16.97756004333496 C 94.07970428466797 -17.35725021362305 93.86613464355469 -17.67046546936035 93.53388977050781 -17.91727447509766 C 93.20167541503906 -18.16406059265137 92.78879547119141 -18.2874641418457 92.29520416259766 -18.2874641418457 L 87.71060180664062 -18.2874641418457 M 52.98929595947266 -24.59289360046387 C 56.63407897949219 -24.59289360046387 60.04132080078125 -23.94772720336914 63.1163444519043 -22.67527389526367 C 66.23020172119141 -21.38679885864258 68.945556640625 -19.54201316833496 71.18693542480469 -17.19217872619629 C 73.40760803222656 -14.86405944824219 75.14289093017578 -12.07667922973633 76.34458160400391 -8.907488822937012 C 77.52375030517578 -5.797798156738281 78.12165832519531 -2.370298385620117 78.12167358398438 1.279773235321045 C 78.12167358398438 4.929844856262207 77.52377319335938 8.357368469238281 76.34455871582031 11.46717834472656 C 75.14131927490234 14.64048767089844 73.40303039550781 17.42620086669922 71.17805480957031 19.74686813354492 C 68.93450927734375 22.08689308166504 66.21705627441406 23.92108345031738 63.10115432739258 25.19846343994141 C 60.03053665161133 26.45729637145996 56.62841796875 27.09558296203613 52.98929595947266 27.09558296203613 C 49.34784698486328 27.09558296203613 45.94841766357422 26.45643997192383 42.88541412353516 25.19589233398438 C 39.78150939941406 23.91853523254395 37.07093811035156 22.08522605895996 34.82901000976562 19.74686813354492 C 32.60403442382812 17.42620086669922 30.86575317382812 14.64048767089844 29.66249084472656 11.46713066101074 C 28.48329925537109 8.357368469238281 27.88539123535156 4.929844856262207 27.88539123535156 1.279820919036865 C 27.88539123535156 -2.370203018188477 28.48329925537109 -5.797726631164551 29.66251373291016 -8.907536506652832 C 30.86418151855469 -12.07667922973633 32.59946441650391 -14.86405944824219 34.82012939453125 -17.19217872619629 C 37.05986785888672 -19.54027366638184 39.76829528808594 -21.38420295715332 42.87024688720703 -22.67267990112305 C 45.93760681152344 -23.94684600830078 49.34215545654297 -24.59289360046387 52.98929595947266 -24.59289360046387 Z M 52.98929595947266 12.31165409088135 C 54.52803802490234 12.31165409088135 55.90238952636719 12.06832122802734 57.07415771484375 11.58839225769043 C 58.17322540283203 11.13822555541992 59.07401275634766 10.51679706573486 59.82796478271484 9.688606262207031 C 60.62551116943359 8.812487602233887 61.23870086669922 7.732106685638428 61.70253372192383 6.385773181915283 C 62.20182037353516 4.936416149139404 62.45498657226562 3.218511343002319 62.45498657226562 1.279820919036865 C 62.45498657226562 -0.6613695621490479 62.20101165771484 -2.386393547058105 61.70013046264648 -3.8473219871521 C 61.23617935180664 -5.200488567352295 60.62377166748047 -6.28325080871582 59.82793807983398 -7.157488822937012 C 59.068603515625 -7.991607666015625 58.16091918945312 -8.620535850524902 57.05310821533203 -9.080155372619629 C 55.88751220703125 -9.563750267028809 54.52022552490234 -9.808964729309082 52.98929595947266 -9.808964729309082 C 51.47727203369141 -9.808964729309082 50.11958312988281 -9.563750267028809 48.95394134521484 -9.080155372619629 C 47.84001159667969 -8.617964744567871 46.92353820800781 -7.984512329101562 46.15219879150391 -7.143608093261719 C 45.35317993164062 -6.272488594055176 44.74027252197266 -5.194250583648682 44.2784423828125 -3.847274303436279 C 43.77758026123047 -2.386393547058105 43.52360534667969 -0.6613695621490479 43.52360534667969 1.279820919036865 C 43.52360534667969 3.218511343002319 43.77677154541016 4.936416149139404 44.27608489990234 6.385820865631104 C 44.73774719238281 7.725915908813477 45.3514404296875 8.801749229431152 46.15217590332031 9.674725532531738 C 46.91808319091797 10.50974941253662 47.82767486572266 11.13570213317871 48.93293762207031 11.58839225769043 C 50.10469818115234 12.06832122802734 51.46943664550781 12.31165409088135 52.98929595947266 12.31165409088135 Z M -17.91808319091797 -23.80982208251953 L -12.91808319091797 -23.80982208251953 L -1.385391235351562 -23.80982208251953 C 1.636627197265625 -23.80982208251953 4.338348388671875 -23.48496437072754 6.6446533203125 -22.84429740905762 C 9.175750732421875 -22.14122581481934 11.34777069091797 -21.06836891174316 13.10031890869141 -19.6555118560791 C 14.96922302246094 -18.14877510070801 16.37834167480469 -16.29051208496094 17.28862762451172 -14.13229751586914 C 18.13515472412109 -12.1252269744873 18.56436920166016 -9.895464897155762 18.56436920166016 -7.504940986633301 C 18.56436920166016 -5.484440803527832 18.233154296875 -3.549131393432617 17.57994079589844 -1.752726554870605 C 16.91698455810547 0.07039237022399902 15.94141387939453 1.732558965682983 14.68032073974609 3.187654256820679 C 13.79730987548828 4.206521987915039 12.77557373046875 5.120508193969727 11.6302490234375 5.917354106903076 L 21.26729583740234 19.03572654724121 L 27.11503601074219 26.99591636657715 L 17.23774719238281 26.99591636657715 L 12.33991241455078 26.99591636657715 C 9.683891296386719 26.99591636657715 7.382011413574219 25.77815055847168 5.984657287597656 23.64473533630371 L -2.422271728515625 12.07394027709961 L -2.422271728515625 21.99591636657715 L -2.422271728515625 26.99591636657715 L -7.422279357910156 26.99591636657715 L -12.91808319091797 26.99591636657715 L -17.91808319091797 26.99591636657715 L -17.91808319091797 21.99591636657715 L -17.91808319091797 -18.80982208251953 L -17.91808319091797 -23.80982208251953 Z M -1.613204956054688 -4.04765510559082 C -0.5405349731445312 -4.04765510559082 0.3726272583007812 -4.165036201477051 1.100936889648438 -4.396512508392334 C 1.672584533691406 -4.578202724456787 2.118438720703125 -4.804798126220703 2.426132202148438 -5.0700364112854 C 2.670799255371094 -5.280964851379395 2.832725524902344 -5.499869346618652 2.951156616210938 -5.77977466583252 C 3.106796264648438 -6.147655487060547 3.182464599609375 -6.581560134887695 3.182464599609375 -7.106274604797363 C 3.182464599609375 -8.298084259033203 2.865798950195312 -8.543107986450195 2.730560302734375 -8.647750854492188 C 2.486442565917969 -8.836655616760254 1.468132019042969 -9.453036308288574 -1.385391235351562 -9.453036308288574 L -2.422271728515625 -9.453036308288574 L -2.422271728515625 -4.04765510559082 L -1.613204956054688 -4.04765510559082 Z M 81.18527221679688 -23.2874641418457 L 87.71060180664062 -23.2874641418457 L 92.29520416259766 -23.2874641418457 C 93.86155700683594 -23.2874641418457 95.32091522216797 -22.81841659545898 96.51548767089844 -21.9310131072998 C 97.78057861328125 -20.99120330810547 98.6484375 -19.69770240783691 99.02532196044922 -18.19029808044434 L 99.03456115722656 -18.15336990356445 L 99.04322814941406 -18.11629867553711 L 101.569694519043 -7.314434051513672 L 104.6242523193359 -18.31527519226074 L 104.6700592041016 -18.48020362854004 L 104.7270126342773 -18.64163208007812 C 105.145751953125 -19.82803535461426 105.8839416503906 -20.86532211303711 106.9211044311523 -21.72467994689941 C 108.1550140380859 -22.74706077575684 109.6766052246094 -23.2874641418457 111.3213958740234 -23.2874641418457 L 112.9160308837891 -23.2874641418457 C 114.561653137207 -23.2874641418457 116.0654373168945 -22.77241706848145 117.2648468017578 -21.79796409606934 C 118.2360076904297 -21.00875091552734 118.9669876098633 -20.01177406311035 119.4378890991211 -18.83432197570801 L 119.5407028198242 -18.57729911804199 L 119.6144866943359 -18.31051254272461 L 122.6253204345703 -7.425309181213379 L 125.1384429931641 -18.1212272644043 L 125.1613922119141 -18.21889305114746 L 125.1882476806641 -18.31555938720703 C 125.5642471313477 -19.66944122314453 126.3716506958008 -20.87198829650879 127.5231552124023 -21.79317855834961 C 128.7448883056641 -22.77067947387695 130.2435302734375 -23.2874641418457 131.8568267822266 -23.2874641418457 L 136.1566467285156 -23.2874641418457 L 142.6819915771484 -23.2874641418457 L 140.9845123291016 -16.98679733276367 L 130.4463043212891 22.12908363342285 L 129.4496612548828 25.82841682434082 L 125.6184387207031 25.82841682434082 L 120.6636276245117 25.82841682434082 L 116.859489440918 25.82841682434082 L 115.8447723388672 22.16208267211914 L 111.9472579956055 8.079523086547852 L 108.0200576782227 22.17074966430664 L 107.0006561279297 25.82841682434082 L 103.2036056518555 25.82841682434082 L 98.24882507324219 25.82841682434082 L 94.4176025390625 25.82841682434082 L 93.42095947265625 22.12908363342285 L 82.88275146484375 -16.98679733276367 L 81.18527221679688 -23.2874641418457 Z"/></g></g></svg>