<svg xmlns="http://www.w3.org/2000/svg" viewBox="0 0 61.235 61.235"><defs><style>.a{fill:#535351;}.b{fill:#fff;}</style></defs><circle class="a" cx="30.617" cy="30.617" r="30.617" transform="translate(0 0)"/><path class="b" d="M34.229,3.292A14.087,14.087,0,0,1,30.2,4.4,7.043,7.043,0,0,0,33.283.515a14.034,14.034,0,0,1-4.46,1.7,7.026,7.026,0,0,0-12.149,4.8,7.1,7.1,0,0,0,.183,1.6A19.935,19.935,0,0,1,2.384,1.285a7.028,7.028,0,0,0,2.173,9.373,6.964,6.964,0,0,1-3.18-.878V9.87A7.024,7.024,0,0,0,7.01,16.753,7.011,7.011,0,0,1,5.159,17a6.908,6.908,0,0,1-1.321-.127A7.033,7.033,0,0,0,10.4,21.75a14.108,14.108,0,0,1-8.723,3A14.154,14.154,0,0,1,0,24.656a19.872,19.872,0,0,0,10.765,3.155c12.916,0,19.98-10.7,19.98-19.976,0-.306-.008-.606-.02-.908a14.273,14.273,0,0,0,3.5-3.634v0Z" transform="translate(13.886 17.095)"/></svg>