<svg xmlns="http://www.w3.org/2000/svg" viewBox="0 0 152.249 48.078"><defs><style>.a,.b{fill:#5b5b5c;stroke:#f4f1e0;}.b{stroke-miterlimit:10;}</style></defs><g transform="translate(0.5 0.5)"><g transform="translate(0 0)"><g transform="translate(127.61 17.028)"><path class="a" d="M72.814,19.417c-5.008.8-8.614-3.205-8.614-7.813h5.609a3.012,3.012,0,0,0,6.01,0l2.8-2.6C78.624,13.808,77.622,18.416,72.814,19.417Z" transform="translate(-64.2 -9)"/></g><g transform="translate(53.688 17.028)"><path class="a" d="M35.914,19.417c-5.008.8-8.614-3.205-8.614-7.813h5.609a2.907,2.907,0,0,0,5.81-.2l2.8-2.4C41.523,13.808,40.722,18.416,35.914,19.417Z" transform="translate(-27.3 -9)"/></g><g transform="translate(11.619)"><path class="a" d="M9.1,41.968a2.739,2.739,0,0,1-2.8-2.8V3.3A2.739,2.739,0,0,1,9.1.5a2.739,2.739,0,0,1,2.8,2.8V39.164A2.739,2.739,0,0,1,9.1,41.968Z" transform="translate(-6.3 -0.5)"/></g><g transform="translate(23.238)"><path class="a" d="M14.9,41.968a2.739,2.739,0,0,1-2.8-2.8V3.3a2.8,2.8,0,1,1,5.609,0V39.164A2.865,2.865,0,0,1,14.9,41.968Z" transform="translate(-12.1 -0.5)"/></g><g transform="translate(32.453 5.609)"><path class="a" d="M19.5,44.768a2.739,2.739,0,0,1-2.8-2.8V6.1a2.8,2.8,0,1,1,5.609,0V41.964A2.628,2.628,0,0,1,19.5,44.768Z" transform="translate(-16.7 -3.3)"/></g><g transform="translate(44.073 5.609)"><path class="a" d="M25.3,44.768a2.739,2.739,0,0,1-2.8-2.8V6.1a2.8,2.8,0,1,1,5.609,0V41.964A2.739,2.739,0,0,1,25.3,44.768Z" transform="translate(-22.5 -3.3)"/></g><g transform="translate(53.688 30.05)"><path class="a" d="M30.1,26.919a2.739,2.739,0,0,1-2.8-2.8V18.3a2.8,2.8,0,1,1,5.609,0v5.81A2.739,2.739,0,0,1,30.1,26.919Z" transform="translate(-27.3 -15.5)"/></g><g transform="translate(53.688)"><path class="a" d="M30.1,22.937a2.739,2.739,0,0,1-2.8-2.8V3.3a2.8,2.8,0,1,1,5.609,0V19.932A2.911,2.911,0,0,1,30.1,22.937Z" transform="translate(-27.3 -0.5)"/></g><g transform="translate(65.107)"><path class="a" d="M35.8,41.968a2.739,2.739,0,0,1-2.8-2.8V3.3a2.8,2.8,0,0,1,5.609,0V39.164A2.628,2.628,0,0,1,35.8,41.968Z" transform="translate(-33 -0.5)"/></g><path class="a" d="M3.3,41.968a2.739,2.739,0,0,1-2.8-2.8V3.3A2.739,2.739,0,0,1,3.3.5a2.739,2.739,0,0,1,2.8,2.8V39.164A2.739,2.739,0,0,1,3.3,41.968Z" transform="translate(-0.5 -0.5)"/><g transform="translate(86.142)"><path class="a" d="M46.3,41.968a2.739,2.739,0,0,1-2.8-2.8V3.3a2.8,2.8,0,0,1,5.609,0V39.164A2.739,2.739,0,0,1,46.3,41.968Z" transform="translate(-43.5 -0.5)"/></g><g transform="translate(97.761)"><path class="a" d="M52.1,41.968a2.739,2.739,0,0,1-2.8-2.8V3.3a2.8,2.8,0,0,1,5.609,0V39.164A2.865,2.865,0,0,1,52.1,41.968Z" transform="translate(-49.3 -0.5)"/></g><g transform="translate(107.177 5.609)"><path class="a" d="M56.8,44.768a2.739,2.739,0,0,1-2.8-2.8V6.1a2.8,2.8,0,0,1,5.609,0V41.964A2.865,2.865,0,0,1,56.8,44.768Z" transform="translate(-54 -3.3)"/></g><g transform="translate(118.595 5.609)"><path class="a" d="M62.5,44.768a2.739,2.739,0,0,1-2.8-2.8V6.1a2.8,2.8,0,0,1,5.609,0V41.964A2.739,2.739,0,0,1,62.5,44.768Z" transform="translate(-59.7 -3.3)"/></g><g transform="translate(127.61)"><path class="a" d="M67,22.937a2.739,2.739,0,0,1-2.8-2.8V3.3a2.8,2.8,0,0,1,5.609,0V19.932A2.911,2.911,0,0,1,67,22.937Z" transform="translate(-64.2 -0.5)"/></g><g transform="translate(139.229)"><path class="a" d="M72.8,41.968a2.739,2.739,0,0,1-2.8-2.8V3.3a2.8,2.8,0,0,1,5.609,0V39.164A2.865,2.865,0,0,1,72.8,41.968Z" transform="translate(-70 -0.5)"/></g><g transform="translate(74.523)"><path class="a" d="M40.5,41.968a2.739,2.739,0,0,1-2.8-2.8V3.3a2.8,2.8,0,0,1,5.609,0V39.164A2.739,2.739,0,0,1,40.5,41.968Z" transform="translate(-37.7 -0.5)"/></g><g transform="translate(32.453 21.035)"><path class="a" d="M31.124,16.609H19.5A2.8,2.8,0,0,1,19.5,11H31.124a2.739,2.739,0,0,1,2.8,2.8A2.865,2.865,0,0,1,31.124,16.609Z" transform="translate(-16.7 -11)"/></g><g transform="translate(11.619 35.859)"><path class="a" d="M14.914,29.618A8.509,8.509,0,0,1,6.3,21.2a2.739,2.739,0,0,1,2.8-2.8,2.739,2.739,0,0,1,2.8,2.8,2.911,2.911,0,0,0,3,2.8,2.911,2.911,0,0,0,3-2.8,2.8,2.8,0,1,1,5.609,0A8.639,8.639,0,0,1,14.914,29.618Z" transform="translate(-6.3 -18.4)"/></g><g transform="translate(53.688 35.859)"><path class="a" d="M35.914,29.618A8.509,8.509,0,0,1,27.3,21.2a2.8,2.8,0,1,1,5.609,0,3.012,3.012,0,0,0,6.01,0,2.8,2.8,0,1,1,5.609,0A8.639,8.639,0,0,1,35.914,29.618Z" transform="translate(-27.3 -18.4)"/></g><g transform="translate(32.654)"><path class="a" d="M31.023,11.718a2.739,2.739,0,0,1-2.8-2.8,2.911,2.911,0,0,0-3-2.8,2.865,2.865,0,0,0-2.8,2.8,2.8,2.8,0,1,1-5.609,0,8.617,8.617,0,0,1,17.228,0A3.045,3.045,0,0,1,31.023,11.718Z" transform="translate(-16.8 -0.5)"/></g><g transform="translate(0 35.859)"><path class="a" d="M9.114,29.618A8.509,8.509,0,0,1,.5,21.2a2.739,2.739,0,0,1,2.8-2.8,2.739,2.739,0,0,1,2.8,2.8,2.911,2.911,0,0,0,3,2.8,2.911,2.911,0,0,0,3-2.8,2.8,2.8,0,1,1,5.609,0A8.509,8.509,0,0,1,9.114,29.618Z" transform="translate(-0.5 -18.4)"/></g><g transform="translate(86.142 35.859)"><path class="a" d="M52.114,29.618A8.509,8.509,0,0,1,43.5,21.2a2.8,2.8,0,0,1,5.609,0,3.012,3.012,0,0,0,6.01,0,2.8,2.8,0,0,1,5.609,0A8.509,8.509,0,0,1,52.114,29.618Z" transform="translate(-43.5 -18.4)"/></g><g transform="translate(127.61 29.248)"><path class="a" d="M72.814,32.929A8.509,8.509,0,0,1,64.2,24.516c0-5.609,4.407-9.416,8.614-9.416h12.22a2.8,2.8,0,1,1,0,5.609H72.814a3.6,3.6,0,0,0-3,3.806,3.012,3.012,0,0,0,6.01,0,2.8,2.8,0,0,1,5.609,0A8.509,8.509,0,0,1,72.814,32.929Z" transform="translate(-64.2 -15.1)"/></g><g transform="translate(107.177)"><path class="a" d="M68.223,11.718a2.739,2.739,0,0,1-2.8-2.8,2.911,2.911,0,0,0-3-2.8,2.865,2.865,0,0,0-2.8,2.8,2.8,2.8,0,1,1-5.609,0,8.617,8.617,0,0,1,17.228,0A3.045,3.045,0,0,1,68.223,11.718Z" transform="translate(-54 -0.5)"/></g><g transform="translate(74.523 35.859)"><path class="a" d="M46.314,29.618A8.509,8.509,0,0,1,37.7,21.2a2.8,2.8,0,1,1,5.609,0,3.012,3.012,0,0,0,6.01,0,2.8,2.8,0,0,1,5.609,0A8.509,8.509,0,0,1,46.314,29.618Z" transform="translate(-37.7 -18.4)"/></g><g transform="translate(106.976 21.035)"><path class="a" d="M68.324,16.609H56.7A2.8,2.8,0,1,1,56.7,11H68.324a2.739,2.739,0,0,1,2.8,2.8A2.865,2.865,0,0,1,68.324,16.609Z" transform="translate(-53.9 -11)"/></g></g><g transform="translate(0 0)"><path class="b" d="M26.543.5a2.739,2.739,0,0,0-2.8,2.8V39.164a3.012,3.012,0,0,1-6.01,0V3.3a2.8,2.8,0,0,0-5.609,0V39.164a2.911,2.911,0,0,1-3,2.8,2.911,2.911,0,0,1-3-2.8V3.3A2.739,2.739,0,0,0,3.3.5,2.739,2.739,0,0,0,.5,3.3v36.46a8.543,8.543,0,0,0,8.614,7.813,8.728,8.728,0,0,0,5.81-2.2,8.728,8.728,0,0,0,5.81,2.2,8.543,8.543,0,0,0,8.614-7.813V3.3A2.865,2.865,0,0,0,26.543.5Z" transform="translate(-0.5 -0.5)"/><path class="b" d="M41.624.5a2.739,2.739,0,0,0-2.8,2.8V19.932a3.012,3.012,0,0,1-6.01,0V3.3a2.8,2.8,0,1,0-5.609,0V19.932h0c0,4.608,3.606,8.815,8.614,7.813a6.97,6.97,0,0,0,3-1.4V38.963h0a3.012,3.012,0,0,1-6.01,0v-5.81a2.8,2.8,0,0,0-5.609,0v6.411a8.655,8.655,0,0,0,17.228,0v-.6h0V3.3A2.628,2.628,0,0,0,41.624.5Z" transform="translate(26.288 -0.5)"/><path class="b" d="M63.743.5a2.739,2.739,0,0,0-2.8,2.8V39.164a3.012,3.012,0,0,1-6.01,0V3.3a2.8,2.8,0,0,0-5.609,0V39.164a3.012,3.012,0,0,1-6.01,0V3.3a2.8,2.8,0,0,0-5.609,0v36.46a8.543,8.543,0,0,0,8.614,7.813,8.728,8.728,0,0,0,5.81-2.2,8.728,8.728,0,0,0,5.81,2.2,8.543,8.543,0,0,0,8.614-7.813V3.3A2.865,2.865,0,0,0,63.743.5Z" transform="translate(36.823 -0.5)"/><path class="b" d="M25.314.5A8.543,8.543,0,0,0,16.7,8.313v36.46a2.8,2.8,0,1,0,5.609,0V27.144h5.81V44.773a2.8,2.8,0,1,0,5.609,0V8.313A8.222,8.222,0,0,0,25.314.5Zm-2.8,20.834V8.914a3.012,3.012,0,0,1,6.01,0v12.42Z" transform="translate(15.753 -0.5)"/><path class="b" d="M85.034,29.748H81.428V3.3a2.8,2.8,0,0,0-5.609,0V19.932a3.012,3.012,0,0,1-6.01,0h0V3.3a2.8,2.8,0,0,0-5.609,0V19.932h0c0,4.608,3.606,8.815,8.614,7.813a6.97,6.97,0,0,0,3-1.4v3h-3c-4.207,0-8.614,3.806-8.614,9.416a8.635,8.635,0,0,0,17.228.6v-.6h0V34.957h3.606a2.739,2.739,0,0,0,2.8-2.8C87.839,30.55,86.637,29.748,85.034,29.748Zm-9.416,9.416h0a2.911,2.911,0,0,1-3,2.8,2.739,2.739,0,0,1-2.8-2.8c0-2.6,1.8-3.806,3-3.806h3l-.2,3.806Z" transform="translate(63.41 -0.5)"/><path class="b" d="M62.514.5A8.543,8.543,0,0,0,53.9,8.313v36.46a2.8,2.8,0,0,0,5.609,0V27.144h5.81V44.773a2.8,2.8,0,0,0,5.609,0V8.313C70.928,3.906,67.122.5,62.514.5Zm-2.8,20.834V8.914a3.012,3.012,0,0,1,6.01,0v12.42Z" transform="translate(53.076 -0.5)"/></g><g transform="translate(0 0)"><path class="b" d="M26.543.5a2.739,2.739,0,0,0-2.8,2.8V39.164a3.012,3.012,0,0,1-6.01,0V3.3a2.8,2.8,0,0,0-5.609,0V39.164a2.911,2.911,0,0,1-3,2.8,2.911,2.911,0,0,1-3-2.8V3.3A2.739,2.739,0,0,0,3.3.5,2.739,2.739,0,0,0,.5,3.3v36.46a8.543,8.543,0,0,0,8.614,7.813,8.728,8.728,0,0,0,5.81-2.2,8.728,8.728,0,0,0,5.81,2.2,8.543,8.543,0,0,0,8.614-7.813V3.3A2.865,2.865,0,0,0,26.543.5Z" transform="translate(-0.5 -0.5)"/><path class="b" d="M41.624.5a2.739,2.739,0,0,0-2.8,2.8V19.932a3.012,3.012,0,0,1-6.01,0V3.3a2.8,2.8,0,1,0-5.609,0V19.932h0c0,4.608,3.606,8.815,8.614,7.813a6.97,6.97,0,0,0,3-1.4V38.963h0a3.012,3.012,0,0,1-6.01,0v-5.81a2.8,2.8,0,0,0-5.609,0v6.411a8.655,8.655,0,0,0,17.228,0v-.6h0V3.3A2.628,2.628,0,0,0,41.624.5Z" transform="translate(26.288 -0.5)"/><path class="b" d="M63.743.5a2.739,2.739,0,0,0-2.8,2.8V39.164a3.012,3.012,0,0,1-6.01,0V3.3a2.8,2.8,0,0,0-5.609,0V39.164a3.012,3.012,0,0,1-6.01,0V3.3a2.8,2.8,0,0,0-5.609,0v36.46a8.543,8.543,0,0,0,8.614,7.813,8.728,8.728,0,0,0,5.81-2.2,8.728,8.728,0,0,0,5.81,2.2,8.543,8.543,0,0,0,8.614-7.813V3.3A2.865,2.865,0,0,0,63.743.5Z" transform="translate(36.823 -0.5)"/><path class="b" d="M25.314.5A8.543,8.543,0,0,0,16.7,8.313v36.46a2.8,2.8,0,1,0,5.609,0V27.144h5.81V44.773a2.8,2.8,0,1,0,5.609,0V8.313A8.222,8.222,0,0,0,25.314.5Zm-2.8,20.834V8.914a3.012,3.012,0,0,1,6.01,0v12.42Z" transform="translate(15.753 -0.5)"/><path class="b" d="M85.034,29.748H81.428V3.3a2.8,2.8,0,0,0-5.609,0V19.932a3.012,3.012,0,0,1-6.01,0h0V3.3a2.8,2.8,0,0,0-5.609,0V19.932h0c0,4.608,3.606,8.815,8.614,7.813a6.97,6.97,0,0,0,3-1.4v3h-3c-4.207,0-8.614,3.806-8.614,9.416a8.635,8.635,0,0,0,17.228.6v-.6h0V34.957h3.606a2.739,2.739,0,0,0,2.8-2.8C87.839,30.55,86.637,29.748,85.034,29.748Zm-9.416,9.416h0a2.911,2.911,0,0,1-3,2.8,2.739,2.739,0,0,1-2.8-2.8c0-2.6,1.8-3.806,3-3.806h3l-.2,3.806Z" transform="translate(63.41 -0.5)"/><path class="b" d="M62.514.5A8.543,8.543,0,0,0,53.9,8.313v36.46a2.8,2.8,0,0,0,5.609,0V27.144h5.81V44.773a2.8,2.8,0,0,0,5.609,0V8.313C70.928,3.906,67.122.5,62.514.5Zm-2.8,20.834V8.914a3.012,3.012,0,0,1,6.01,0v12.42Z" transform="translate(53.076 -0.5)"/></g></g></svg>