<svg xmlns="http://www.w3.org/2000/svg" viewBox="0 0 61.235 61.235"><defs><style>.a{fill:#535351;}.b{fill:#fff;}</style></defs><circle class="a" cx="30.617" cy="30.617" r="30.617" transform="translate(0 0)"/><path class="b" d="M16.21,25.216h0c-.084,0-8.471-.061-11.012-.344-.137-.032-.3-.056-.5-.084a4.545,4.545,0,0,1-3.082-1.463A8.622,8.622,0,0,1,.336,19.771,57.4,57.4,0,0,1,0,13.984V11.29C0,8.405.332,5.473.336,5.444A7.84,7.84,0,0,1,1.621,1.891,4.416,4.416,0,0,1,4.766.41h.007L4.863.4C9.337.062,16.142,0,16.21,0s6.873.062,11.347.4l.154.013A4.127,4.127,0,0,1,30.8,1.891a8.622,8.622,0,0,1,1.285,3.553c0,.029.336,2.96.336,5.845v2.694c0,2.827-.332,5.759-.336,5.788A8.625,8.625,0,0,1,30.8,23.325a4.416,4.416,0,0,1-3.145,1.481h-.007l-.091.008C23.081,25.211,16.278,25.216,16.21,25.216ZM12.3,6.82V19.256l10.621-6.075Z" transform="translate(14.025 17.627)"/></svg>